<?xml version="1.0" encoding="utf-8"?>
<!-- Generator: Adobe Illustrator 24.0.0, SVG Export Plug-In . SVG Version: 6.00 Build 0)  -->
<svg version="1.1" id="Layer_1" xmlns="http://www.w3.org/2000/svg" xmlns:xlink="http://www.w3.org/1999/xlink" x="0px" y="0px"
	 viewBox="0 0 256 256" style="enable-background:new 0 0 256 256;" xml:space="preserve">
<style type="text/css">
	.st0{fill:#6AC3DC;}
	.st1{fill:#8D74B8;}
	.st2{fill:#59C4B8;}
</style>
<g>
	<g>
		<path class="st2" d="M6.18,110.61c-1.43-10.16,5.59-16.23,18.07-16.23c6.41,0,11.32,2.46,12.96,3.89l1.02,9.41
			c-2.59-2.8-8.18-5.25-13.78-5.25c-5.32,0-10.09,1.5-9.41,6.41l1.7,13.37C11.43,120.09,7,116.68,6.18,110.61z M10.21,143
			l-1.3-10.91c1.77,2.66,7.57,6.41,14.39,7.43l0.68,8.18C16.14,146.96,11.71,144.16,10.21,143z M36.81,132.43
			c-0.41-2.59-2.04-4.43-4.7-5.73l-0.89-9.28c7.71,2.18,13.23,5.25,14.39,13.57c1.02,7.43-1.84,12.41-7.16,14.8L36.81,132.43z"/>
		<path class="st2" d="M58.77,112.72l1.98,15.48c0.89,6.34,6.34,12.34,14.46,12.34c4.7,0,8.32-1.3,9.75-3.41l3,6.96
			c-2.66,2.05-6.48,3.75-12.62,3.75c-12.75,0-21.48-8.8-22.91-18.89C51.54,122.34,53.86,116.27,58.77,112.72z M70.56,109.11
			c4.57,0,8.93,1.02,12.21,2.86l-1.7,7.57c-2.05-1.7-5.73-3.07-9.89-3.07L70.56,109.11z"/>
		<path class="st2" d="M90.82,110h8.39l0.75,4.3c1.3-2.86,3.89-5.18,8.93-5.18c1.5,0,3.07,0.41,4.3,1.16l-1.3,8.25
			c-0.82-0.95-2.18-1.98-4.23-1.98c-3.55,0-5.66,2.32-6.75,5.86l1.43,9.75h-8.39L90.82,110z"/>
		<path class="st2" d="M119.46,128.68c-1.57-11.19,5.52-19.57,16.1-19.57c5.59,0,9.68,3.27,11.12,5.32l-0.61-4.43h8.18l3.68,25.64
			c0.48,3.07,1.43,4.98,3.41,4.98c0.61,0,1.16-0.14,1.36-0.55l2.59,4.16c-0.82,1.84-3.14,3.48-6.96,3.48
			c-2.45,0-6.48-1.23-7.84-4.98L147.56,122c-1.7-2.93-5.52-6.14-10.78-6.14c-6.14,0-10.16,4.84-9.14,12
			c0.95,6.61,5.93,12.21,11.8,12.96l0.55,6.89C129.76,147.44,120.9,139.05,119.46,128.68z"/>
		<path class="st2" d="M166.73,110h8.39l0.89,5.46c1.77-3.07,5.66-6.34,11.39-6.34c10.84,0,17.94,8.18,19.37,18.35
			c1.7,11.73-4.7,20.19-15.41,20.39l-0.55-7.09c6.62-0.68,8.46-6.89,7.78-12.21c-1.09-7.43-5.93-12.41-12.75-12.41
			c-5.05,0-8.05,3.96-8.87,6.82l5.52,38.67h-8.46L166.73,110z"/>
		<path class="st2" d="M219.11,111.7l2.52,19.3c1.09,6.07,7.23,9.55,13.44,9.55c5.18,0,9.89-1.09,12.34-3.27l2.59,6.41
			c-2.73,2.39-8.25,4.16-15.34,4.16c-11.93,0-20.6-7.23-22.17-18.55C211.4,121.73,213.79,115.11,219.11,111.7z M248.23,126.09
			c0.2,1.84,0.14,4.02-0.07,4.98l-14.25,0.2l-0.89-6.41l6.96,0.27c-0.61-4.64-4.02-7.98-8.39-8.87l-0.55-7.02
			C241.34,110.34,247.07,117.91,248.23,126.09z"/>
	</g>
</g>
</svg>
